<svg width="232" height="207" viewBox="0 0 232 207" fill="none" xmlns="http://www.w3.org/2000/svg">
<path d="M127.191 197.645C128.707 196.925 134.093 201.532 136.596 203.926L141.853 205.726L143.525 203.62L150.043 197.452L154.75 192.998C157.466 190.429 161.402 193.848 162.488 192.82C163.575 191.792 166.29 189.223 165.071 183.234C163.851 177.245 170.502 178.095 171.227 177.409C171.951 176.724 177.697 178.43 178.602 177.573L184.396 172.092C186.931 169.693 188.138 164.087 190.419 159.25C192.7 154.414 203.077 163.991 198.707 158.305C194.336 152.619 205.751 150.03 204.072 145.369L206.4 138.896C209.864 145.86 218.573 141.471 221.47 138.729C224.367 135.988 219.946 136.37 222.118 120.923C221.453 112.623 226.659 109.9 223.652 102.031C220.645 94.1615 216.377 83.7969 221.966 82.0802C227.555 80.3635 230.61 81.0451 231.201 73.3431C231.792 65.641 231.14 68.9367 224.62 61.7124C218.101 54.4881 232.592 51.2834 229.019 47.5218C225.445 43.7602 225.6 34.7788 222.026 31.0172C218.452 27.2556 211.912 26.5268 207.819 19.6856C203.726 12.8443 204.782 14.4116 201.039 9.02438C197.296 3.63714 196.379 8.67519 192.177 4.61471C187.976 0.554227 186.635 1.57873 185.549 2.60659C184.462 3.63446 181.692 -0.497746 179.7 1.38667C177.708 3.27108 172.319 -1.30192 173.732 2.71845C175.145 6.73882 167.792 2.98084 165.982 4.69394C164.171 6.40704 162.361 8.12015 163.049 12.8258C163.738 17.5314 158.015 12.2316 158.704 16.9372C159.392 21.6428 155.264 20.1921 153.272 22.0765C151.28 23.9609 148.781 20.9684 146.79 22.8528C144.798 24.7373 141.756 22.2587 142.082 27.3069C142.409 32.3551 136.589 28.0395 133.246 30.3103C129.902 32.581 122.948 23.0896 123.383 25.3567C123.817 27.6239 114.992 15.4388 112.119 14.5859C109.82 13.9035 106.364 14.078 104.924 14.2505L97.306 9.851C96.6421 10.4791 94.8483 11.4621 92.9843 10.3686C90.6543 9.00169 83.3141 3.44675 81.8656 4.81724C80.4172 6.18772 76.4794 7.18764 77.168 11.8933C77.8566 16.5989 73.3558 12.8688 72.4506 13.7254C71.5453 14.5819 71.5215 18.1758 70.7972 18.8611C70.073 19.5463 74.3352 28.0135 72.8868 29.384C71.4383 30.7545 68.3841 30.0729 73.6243 40.2933C78.8645 50.5137 68.0352 42.01 68.1925 45.4326C68.3498 48.8552 56.5769 40.225 54.5852 42.1094C52.5936 43.9938 58.1972 46.8541 56.9298 48.0532C55.6624 49.2524 51.9077 45.6621 50.4592 47.0326C49.0107 48.4031 49.8923 51.1404 48.6248 52.3396C47.3574 53.5388 44.6653 52.5145 43.3979 53.7137C42.1305 54.9129 43.5314 60.7302 42.083 62.1007C40.6345 63.4712 34.5498 58.514 32.3771 60.5697C30.2044 62.6255 27.3668 56.3817 26.0994 57.5809C24.832 58.78 22.3328 55.7875 20.7033 57.3293C19.0738 58.8711 18.4579 56.7753 18.7117 59.2137C18.9654 61.6522 15.0178 60.0302 12.2292 59.99C9.4406 59.9499 10.334 60.8903 10.8534 63.9703C11.3728 67.0503 9.40495 65.3408 8.6807 66.026C7.95647 66.7112 9.28472 69.9188 10.3473 72.4849C11.1974 74.5377 8.7702 75.1675 7.45035 75.2258C6.93538 76.0107 6.60083 78.5296 9.38257 82.3262C12.8597 87.0719 8.11517 83.5253 3.62435 82.4172C-0.866476 81.3092 1.78999 87.7243 1.05385 90.2065C0.464969 92.1922 3.41647 95.7091 4.96584 97.2193C8.04035 99.3699 14.9355 105.108 17.9203 110.855C20.1538 113.206 21.1437 113.162 23.7275 116.968C26.3112 120.773 24.4279 119.876 29.6919 126.503C34.9559 133.129 28.6426 135.531 30.8524 141.476C33.0621 147.421 37.3838 146.904 38.7476 144.72C40.1115 142.537 45.5566 148.992 49.8426 153.866C54.1286 158.739 49.6259 159.428 54.081 165.927C58.5362 172.426 64.8376 171.821 70.1372 173.056C75.4369 174.292 77.4893 176.814 82.9463 181.473C88.4032 186.131 95.7049 202.163 99.8336 203.614C103.962 205.064 109.119 195.994 112.174 196.676C115.228 197.357 115.971 202.086 120.088 205.334C124.205 208.582 125.296 198.546 127.191 197.645Z" fill="white" fill-opacity="0.2" stroke="#CEF952"/>
</svg>
