<svg width="221" height="205" viewBox="0 0 221 205" fill="none" xmlns="http://www.w3.org/2000/svg">
<path d="M87.7627 200.584C89.3717 199.509 93.0605 202.129 94.7038 203.573L95.2449 200.246L101.213 201.343L108.999 193.961L114.622 188.63C117.866 185.554 120.547 187.516 121.845 186.286C123.142 185.055 126.386 181.98 126.949 176.942C127.512 171.905 133.438 170.791 134.303 169.971C135.168 169.151 140.012 169.062 141.093 168.036L148.014 161.475C151.042 158.604 153.745 153.226 157.228 148.236C160.71 143.245 158.332 139.87 155.889 135.994C153.445 132.118 161.944 130.253 161.707 126.537C161.469 122.821 165.211 119.837 167.374 117.787C169.536 115.737 172.325 120.411 174.921 117.95C177.516 115.489 180.069 110.817 178.165 109.244C176.262 107.671 181.215 104.664 184.676 101.382C188.137 98.1013 188.244 100.815 194.625 86.3203C196.356 79.0496 196.399 81.2604 195.837 75.0375C195.275 68.8146 202.628 73.1032 208.294 69.9831C213.96 66.863 216.598 66.6135 219.324 59.5253C222.05 52.437 220.514 55.5827 216.514 50.9306C212.514 46.2785 213.574 41.3322 211.326 38.9604C209.077 36.5886 209.185 33.6713 206.937 31.2995C204.688 28.9278 207.414 21.8395 205.554 16.8469C203.695 11.8543 211.502 14.0229 209.556 10.238C207.611 6.45307 205.556 5.58586 202.81 3.12267C200.064 0.659473 198.572 0.385204 197.275 1.61549C195.977 2.84578 191.523 0.313362 189.144 2.56889C186.765 4.82441 185.856 9.06382 186.028 12.278C186.201 15.4921 180.449 14.19 178.286 16.2405C176.123 18.291 173.961 20.3414 173.268 24.3758C172.576 28.4102 168.77 25.2626 168.078 29.2969C167.385 33.3313 163.968 33.1929 161.589 35.4484C159.21 37.7039 157.74 35.72 155.361 37.9756C152.982 40.2311 150.863 38.8624 149.738 43.3068C148.613 47.7513 144.44 45.5153 140.698 48.4996C136.957 51.4839 133.195 44.9171 132.957 46.8318C132.719 48.7464 127.984 40.2872 125.562 40.3316C123.624 40.3671 120.372 41.4992 118.988 42.0608L113.171 40.2571C112.378 41.009 110.437 42.3985 109.019 41.9419C107.246 41.3712 102.013 38.4509 100.283 40.0913C98.5526 41.7316 93.6657 39.6093 92.9731 43.6437C92.2806 47.678 90.1179 49.7285 89.0365 50.7537C87.9551 51.779 86.9167 55.0154 86.0516 55.8355C85.1865 56.6557 86.7427 63.0619 85.0125 64.7022C83.2823 66.3426 80.6441 66.5921 82.6109 74.2977C84.5777 82.0033 76.9448 77.4178 76.1227 80.4491C75.3005 83.4804 71.6465 79.6263 69.2674 81.8819L64.942 85.9828C63.4281 87.4181 60.9631 85.2514 59.2329 86.8918C57.5027 88.5322 57.5457 90.7433 56.0318 92.1787C54.5179 93.614 52.3122 93.4533 50.7983 94.8887C49.2843 96.324 48.9377 101.156 47.2075 102.797C45.4773 104.437 41.2393 101.7 38.644 104.16C36.0487 106.621 35.1843 101.811 33.6704 103.246C32.1565 104.681 30.6863 102.697 28.7398 104.543C26.7934 106.388 26.8152 104.679 26.3608 106.798C25.9064 108.918 22.706 108.575 20.1325 109.326C17.5591 110.077 18.1213 110.669 17.7317 113.291C17.3421 115.912 16.0015 114.931 15.1364 115.751C14.2713 116.571 14.5953 119.079 14.8546 121.085C15.062 122.69 12.6341 123.941 11.3942 124.366C10.6949 125.217 9.67245 127.575 11.1772 130.201C13.0581 133.485 9.66327 131.637 5.81403 131.908C1.9648 132.18 2.61289 137.195 1.22859 139.634C0.121151 141.584 1.86236 143.912 2.87138 144.832C5.113 145.896 9.88155 149.107 11.0228 153.429C12.4282 154.912 13.3581 154.593 14.6768 157.283C15.9956 159.974 14.5035 159.699 17.5088 164.169C20.514 168.638 13.9828 172.578 14.3499 177.297C14.7169 182.016 18.869 180.331 20.7507 177.984C22.6323 175.637 25.8539 179.901 28.4484 183.071C31.043 186.241 26.6745 188.131 28.9661 192.714C31.2578 197.296 37.2697 194.974 41.8326 194.589C46.3955 194.204 47.5846 195.891 51.3253 198.537C55.0661 201.183 61.3591 199.158 64.7758 199.296C68.1925 199.434 71.4788 204.2 74.1171 203.951C76.7553 203.701 76.6694 199.279 79.5669 201.036C82.4643 202.792 85.7514 201.928 87.7627 200.584Z" fill="white" fill-opacity="0.2" stroke="#CEF952" stroke-width="0.59605"/>
</svg>
