<svg width="14" height="14" viewBox="0 0 14 14" fill="none" xmlns="http://www.w3.org/2000/svg">
<path d="M6.16672 13.6663C5.93061 13.6663 5.73269 13.5865 5.57297 13.4268C5.41325 13.267 5.33339 13.0691 5.33339 12.833V7.83301L0.354221 1.47884C0.159777 1.24273 0.131999 0.99273 0.270888 0.728841C0.409776 0.464952 0.625054 0.333008 0.916721 0.333008H13.0834C13.3751 0.333008 13.5903 0.464952 13.7292 0.728841C13.8681 0.99273 13.8403 1.24273 13.6459 1.47884L8.66672 7.83301V12.833C8.66672 13.0691 8.58686 13.267 8.42714 13.4268C8.26742 13.5865 8.0695 13.6663 7.83339 13.6663H6.16672Z" fill="white"/>
</svg>
