<svg width="292" height="338" viewBox="0 0 292 338" fill="none" xmlns="http://www.w3.org/2000/svg">
<path d="M0.268465 40.192L146.133 0L292 40.6762V298.776L146.743 338C98.1208 324.764 0.75468 298.292 0.268465 298.292C-0.217751 298.292 0.0658749 126.225 0.268465 40.192Z" fill="#071222"/>
<path d="M1.01016 201.505C1.04541 148.051 1.16574 83.968 1.26668 40.9542L146.132 1.03771L291 41.4355V298.011L146.744 336.964C122.433 330.346 86.088 320.46 55.7167 312.218C40.4765 308.081 26.7402 304.359 16.7834 301.67C11.8052 300.326 7.77102 299.24 4.96593 298.49C3.56362 298.115 2.46715 297.823 1.71304 297.625C1.52627 297.576 1.3599 297.533 1.2147 297.496C1.20483 297.196 1.19522 296.804 1.18593 296.32C1.16146 295.044 1.13971 293.158 1.12053 290.723C1.08217 285.853 1.05416 278.798 1.03485 270.06C0.996235 252.586 0.992436 228.391 1.01016 201.505Z" stroke="url(#paint0_linear_5766_65049)" stroke-opacity="0.5" stroke-width="2"/>
<path d="M1.01016 201.505C1.04541 148.051 1.16574 83.968 1.26668 40.9542L146.132 1.03771L291 41.4355V298.011L146.744 336.964C122.433 330.346 86.088 320.46 55.7167 312.218C40.4765 308.081 26.7402 304.359 16.7834 301.67C11.8052 300.326 7.77102 299.24 4.96593 298.49C3.56362 298.115 2.46715 297.823 1.71304 297.625C1.52627 297.576 1.3599 297.533 1.2147 297.496C1.20483 297.196 1.19522 296.804 1.18593 296.32C1.16146 295.044 1.13971 293.158 1.12053 290.723C1.08217 285.853 1.05416 278.798 1.03485 270.06C0.996235 252.586 0.992436 228.391 1.01016 201.505Z" stroke="url(#paint1_linear_5766_65049)" stroke-opacity="0.5" stroke-width="2"/>
<path d="M1.01016 201.505C1.04541 148.051 1.16574 83.968 1.26668 40.9542L146.132 1.03771L291 41.4355V298.011L146.744 336.964C122.433 330.346 86.088 320.46 55.7167 312.218C40.4765 308.081 26.7402 304.359 16.7834 301.67C11.8052 300.326 7.77102 299.24 4.96593 298.49C3.56362 298.115 2.46715 297.823 1.71304 297.625C1.52627 297.576 1.3599 297.533 1.2147 297.496C1.20483 297.196 1.19522 296.804 1.18593 296.32C1.16146 295.044 1.13971 293.158 1.12053 290.723C1.08217 285.853 1.05416 278.798 1.03485 270.06C0.996235 252.586 0.992436 228.391 1.01016 201.505Z" stroke="url(#paint2_linear_5766_65049)" stroke-opacity="0.5" stroke-width="2"/>
<defs>
<linearGradient id="paint0_linear_5766_65049" x1="-55.6859" y1="48.1963" x2="80.6514" y2="150.69" gradientUnits="userSpaceOnUse">
<stop stop-color="#51CBFF"/>
<stop offset="0.9999" stop-color="#51CBFF" stop-opacity="0.015625"/>
<stop offset="1" stop-opacity="0"/>
</linearGradient>
<linearGradient id="paint1_linear_5766_65049" x1="146.272" y1="333.45" x2="146.275" y2="166.725" gradientUnits="userSpaceOnUse">
<stop stop-color="#51CBFF"/>
<stop offset="0.691797" stop-color="#51CBFF" stop-opacity="0.015625"/>
</linearGradient>
<linearGradient id="paint2_linear_5766_65049" x1="316.801" y1="56.9593" x2="194.35" y2="125.086" gradientUnits="userSpaceOnUse">
<stop stop-color="#51CBFF"/>
<stop offset="1" stop-color="#51CBFF" stop-opacity="0"/>
</linearGradient>
</defs>
</svg>
