<svg width="37" height="38" viewBox="0 0 37 38" fill="none" xmlns="http://www.w3.org/2000/svg">
<path d="M23.5152 16.7148C22.7967 17.853 22.0483 18.7958 21.4746 19.4585L24.2705 21.0724C24.2774 21.0766 24.2809 21.0831 24.2879 21.0882C24.309 21.1015 24.3262 21.1198 24.3439 21.1377C24.3631 21.1565 24.3819 21.1741 24.3961 21.1956C24.4007 21.2025 24.4068 21.2055 24.4111 21.213C24.4191 21.2272 24.4197 21.243 24.4261 21.258C24.436 21.2821 24.4465 21.3059 24.451 21.3322C24.4556 21.3563 24.4564 21.3801 24.4564 21.4045C24.4564 21.4286 24.4556 21.4524 24.451 21.4768C24.4456 21.5028 24.436 21.5266 24.4261 21.5513C24.4197 21.5663 24.4189 21.5821 24.4111 21.5963C24.4052 21.6048 24.3985 21.6113 24.3926 21.6201C24.3848 21.63 24.3787 21.6397 24.3698 21.649C24.3423 21.6825 24.3107 21.7112 24.2745 21.7332C24.2729 21.7342 24.2715 21.7361 24.2699 21.7377L22.5725 22.7164L23.1412 23.0448L25.2208 21.8437L28.8104 19.7716L23.5152 16.7148Z" fill="#A1A7B0"/>
<path d="M13.7072 17.0088C13.6268 16.8087 13.5459 16.6059 13.4642 16.3994L13.0576 16.6341L13.7072 17.0088Z" fill="#A1A7B0"/>
<path d="M19.0743 20.9934L16.1846 21.8828C16.1471 21.894 16.1091 21.8994 16.0721 21.8994C16.0644 21.8994 16.0587 21.8964 16.051 21.8959C16.0344 21.8951 16.018 21.8943 16.0014 21.8913C15.9969 21.8905 15.9937 21.8868 15.9896 21.886C15.9347 21.8736 15.8841 21.8525 15.8394 21.8187C15.8364 21.8161 15.834 21.8126 15.8313 21.8107C15.793 21.7799 15.763 21.74 15.7384 21.6955C15.7346 21.6883 15.7271 21.6848 15.7242 21.6776C15.7154 21.6583 15.0412 20.2261 14.1835 18.1681L12.2903 17.0752L6.53027 20.4009L13.962 24.6914L19.722 21.3671L19.0743 20.9934Z" fill="#A1A7B0"/>
<path d="M31.2129 28.1482V30.0618L36.0662 27.2598C36.2328 27.1631 36.2928 27.0634 36.2928 27.0093V25.2168L31.2129 28.1482Z" fill="#A1A7B0"/>
<path d="M30.8283 27.4835L36.0654 24.461C36.2259 24.3708 36.2859 24.2778 36.2888 24.2269C36.2958 24.1402 36.2138 24.0461 36.0708 23.9639L31.375 21.2529L25.7061 24.5264L30.8283 27.4835Z" fill="#A1A7B0"/>
<path d="M19.2812 35.0367C18.9429 35.2322 18.5087 35.3297 18.0758 35.3297C17.647 35.3297 17.2179 35.2338 16.8847 35.0412L7.18457 29.4414V31.3528L17.2694 37.1755C17.7022 37.4252 18.4632 37.4235 18.8974 37.172L22.5349 35.072V33.1592L19.2812 35.0367Z" fill="#A1A7B0"/>
<path d="M24.4278 33.9796V31.6221L15.5965 26.5235C15.5941 26.5219 15.5936 26.52 15.5912 26.5189C15.555 26.497 15.5245 26.4683 15.4958 26.4348C15.488 26.426 15.4808 26.4161 15.4738 26.4059C15.4677 26.3979 15.4605 26.3914 15.4551 26.3821C15.4471 26.3679 15.4463 26.3521 15.4401 26.3371C15.4297 26.3124 15.4197 26.2886 15.4155 26.2626C15.4101 26.2385 15.4101 26.2147 15.4101 26.1903C15.4101 26.1662 15.4101 26.1423 15.4155 26.118C15.42 26.092 15.4297 26.0681 15.4401 26.0438C15.4463 26.0288 15.4471 26.013 15.4551 25.9988C15.4597 25.9915 15.4663 25.9883 15.4709 25.9814C15.4851 25.9591 15.503 25.9414 15.5221 25.9235C15.54 25.9056 15.5574 25.8879 15.578 25.8739C15.585 25.8694 15.5885 25.8624 15.596 25.8581L19.694 23.4927C19.7079 23.4847 19.7234 23.4841 19.7384 23.4774C19.7631 23.4678 19.7864 23.4573 19.8126 23.4533C19.8367 23.448 19.8606 23.4474 19.8849 23.4474C19.909 23.4474 19.9337 23.4477 19.9573 23.4533C19.9832 23.4584 20.0068 23.4673 20.0307 23.4774C20.0457 23.4839 20.0623 23.4847 20.077 23.4932L29.1003 28.7017C29.1081 28.706 29.111 28.7132 29.1191 28.7178C29.1324 28.7264 29.1432 28.7363 29.1566 28.7462C29.1708 28.7585 29.1825 28.7703 29.1957 28.7853C29.2069 28.7984 29.2171 28.8113 29.2265 28.8257C29.2316 28.8322 29.2377 28.8354 29.2415 28.8423C29.2458 28.8496 29.2458 28.8565 29.2487 28.8638C29.2567 28.879 29.2621 28.894 29.2683 28.9101C29.2747 28.9278 29.2787 28.9444 29.2825 28.9626C29.2854 28.9792 29.2878 28.9953 29.2889 29.0122C29.2897 29.0202 29.2934 29.0264 29.2934 29.0344V31.1705L30.4447 30.5065V28.1483L24.7492 24.8598H24.7484L24.746 24.8582C24.7444 24.8574 24.7433 24.8558 24.7417 24.8547C24.7047 24.8333 24.6734 24.8033 24.645 24.7695C24.6372 24.7604 24.63 24.751 24.623 24.7414C24.6166 24.7334 24.6096 24.7264 24.6043 24.7173C24.5963 24.7031 24.5954 24.6873 24.5893 24.6723C24.5788 24.6477 24.5687 24.6238 24.5646 24.5978C24.5593 24.5737 24.5593 24.5499 24.5593 24.5255C24.5593 24.5014 24.5593 24.4776 24.5646 24.4532C24.5697 24.4275 24.5788 24.4034 24.5893 24.3787C24.5954 24.3637 24.5963 24.3479 24.6043 24.3343C24.6088 24.3265 24.615 24.3236 24.6201 24.3166C24.6332 24.2952 24.6522 24.2775 24.6704 24.2593C24.6892 24.2408 24.7066 24.2228 24.7278 24.2089C24.7342 24.2038 24.7374 24.1977 24.7452 24.1936L30.6069 20.8095L29.5781 20.2154L23.3338 23.8224C23.2747 23.8567 23.208 23.8738 23.1418 23.8738C23.0751 23.8738 23.0089 23.8564 22.9497 23.8224L21.6126 23.0494C21.4939 22.9805 21.4205 22.8536 21.4205 22.7172C21.4205 22.5801 21.4939 22.4531 21.6126 22.3848L23.3095 21.4061L20.9494 20.043C20.6845 20.3272 20.5136 20.493 20.4924 20.5139C20.49 20.5163 20.4865 20.5165 20.4844 20.519C20.4616 20.5401 20.4332 20.5543 20.4056 20.5696C20.389 20.5784 20.374 20.5902 20.3569 20.5961C20.3499 20.5985 20.3462 20.6039 20.3395 20.6049L20.0756 20.6864L20.6815 21.0362C20.6895 21.0407 20.6928 21.0474 20.6995 21.0528C20.7209 21.0662 20.7375 21.0836 20.7554 21.1007C20.7742 21.1203 20.7935 21.1382 20.8079 21.1594C20.8122 21.1666 20.8184 21.1698 20.8229 21.1768C20.831 21.191 20.8318 21.2068 20.8379 21.2218C20.8484 21.2465 20.8586 21.2703 20.8626 21.2963C20.8679 21.3204 20.8679 21.3442 20.8679 21.3686C20.8679 21.3927 20.8679 21.4165 20.8626 21.4409C20.8575 21.4666 20.8484 21.4907 20.8379 21.5154C20.8318 21.5304 20.831 21.5462 20.8229 21.5598C20.8176 21.5687 20.8106 21.5751 20.8042 21.584C20.7972 21.5936 20.79 21.6027 20.7822 21.6115C20.7538 21.6461 20.7222 21.6753 20.6855 21.6973C20.6836 21.6983 20.6828 21.6999 20.6812 21.7007L20.6788 21.7023C20.6788 21.7023 20.678 21.7023 20.678 21.7026L14.153 25.4692C14.1522 25.4692 14.1522 25.4692 14.1514 25.47C14.134 25.4792 14.1153 25.485 14.0973 25.4923C14.0531 25.5097 14.0076 25.5207 13.9615 25.5207H13.9607C13.9149 25.5207 13.8694 25.5094 13.8249 25.4923C13.8062 25.485 13.7874 25.48 13.7708 25.47C13.77 25.4692 13.7692 25.4692 13.7684 25.4692L5.76268 20.846L4.6377 21.495L10.1223 24.6622C10.1293 24.6665 10.1328 24.6729 10.1397 24.6772C10.1617 24.6914 10.1788 24.7094 10.1973 24.7278C10.2153 24.7466 10.2343 24.7648 10.2477 24.7854C10.2522 24.7924 10.2589 24.7959 10.2635 24.8028C10.2715 24.817 10.2723 24.8328 10.2785 24.8478C10.2889 24.8719 10.2988 24.8963 10.3031 24.922C10.3085 24.9461 10.3085 24.97 10.3085 24.9944C10.3085 25.0185 10.3085 25.0423 10.3031 25.0667C10.2986 25.0924 10.2889 25.1162 10.2785 25.1409C10.2723 25.1559 10.2715 25.1717 10.2635 25.1859C10.2581 25.1947 10.2509 25.2011 10.2447 25.21C10.2378 25.2196 10.2305 25.2293 10.2228 25.2381C10.1944 25.2724 10.1628 25.3016 10.1261 25.3233C10.1245 25.3249 10.1236 25.3262 10.1223 25.327L10.1199 25.3286C10.1199 25.3286 10.1191 25.3286 10.1191 25.3289L5.47475 28.0104V30.366L6.41603 30.9094V28.7749C6.41603 28.7685 6.41978 28.7636 6.41978 28.7569C6.42059 28.7368 6.42353 28.7181 6.42755 28.6985C6.4313 28.6819 6.43559 28.6669 6.44175 28.6514C6.4463 28.6364 6.45139 28.6225 6.45835 28.6088C6.4621 28.6008 6.4621 28.5914 6.46639 28.5839C6.47094 28.5759 6.47898 28.5716 6.48434 28.5635C6.49318 28.5504 6.50309 28.5394 6.51353 28.5266C6.52478 28.514 6.5355 28.5019 6.54889 28.4901C6.56228 28.4784 6.57648 28.4663 6.59228 28.4564C6.59844 28.4526 6.60192 28.4468 6.60809 28.443L11.4472 25.6495C11.4614 25.6415 11.4772 25.6407 11.4922 25.6345C11.5168 25.6241 11.5409 25.6142 11.5672 25.6091C11.5913 25.6045 11.6143 25.604 11.6395 25.604C11.6644 25.604 11.6874 25.6043 11.7121 25.6091C11.7375 25.615 11.7616 25.6236 11.7855 25.634C11.8013 25.6404 11.8171 25.6412 11.8313 25.6493L23.1099 32.1603C23.1179 32.1646 23.1212 32.1711 23.1279 32.1764C23.1412 32.1844 23.1533 32.1949 23.1659 32.2048C23.1801 32.2174 23.1924 32.2294 23.205 32.2439C23.2162 32.257 23.227 32.2699 23.2366 32.2844C23.2404 32.2908 23.2471 32.294 23.2508 32.301C23.2546 32.3082 23.2546 32.3152 23.2586 32.3224C23.2666 32.3377 23.272 32.3527 23.2779 32.3687C23.284 32.3864 23.2878 32.4033 23.2918 32.4212C23.2953 32.4378 23.2982 32.4539 23.299 32.4708C23.299 32.4788 23.3036 32.485 23.3036 32.493V34.6289L24.4278 33.9796Z" fill="#A1A7B0"/>
<path d="M17.2674 34.3766C17.6994 34.6257 18.4612 34.6238 18.8962 34.3723L22.1499 32.4938L11.6385 26.4258L7.56738 28.7762L17.2674 34.3766Z" fill="#A1A7B0"/>
<path d="M25.1953 31.6233V33.5361L28.5253 31.6135V29.7002L25.1953 31.6233Z" fill="#A1A7B0"/>
<path d="M0.00453997 27.0897C0.00453997 27.1446 0.0613255 27.241 0.22124 27.3321L4.70705 29.9222V28.0103L0.00455357 25.2939V27.0466C0.00455357 27.0546 0.00080352 27.0605 0 27.068C0.00080352 27.0758 0.00455357 27.0827 0.00455357 27.0897L0.00453997 27.0897Z" fill="#A1A7B0"/>
<path d="M14.0111 15.6873C14.0135 15.6927 14.0148 15.6981 14.0172 15.7034C14.0172 15.7034 14.018 15.7037 14.018 15.7042C14.9127 18.007 15.7829 19.9621 16.1858 20.8463C17.363 19.5889 20.8679 15.4848 20.8679 11.2003C20.8679 8.38566 18.7339 4.00648 15.8799 2.3594C15.2103 1.97342 14.562 1.77734 13.9537 1.77734C13.7153 1.77734 13.4834 1.80895 13.2653 1.87029C12.0378 2.21744 11.2754 3.50044 11.2754 5.21795C11.2751 8.01896 12.7612 12.4536 14.011 15.6874L14.0111 15.6873ZM14.9046 4.44917C15.3367 4.44917 15.7939 4.58659 16.263 4.85766C17.8251 5.75923 19.0484 7.86972 19.0484 9.66218C19.0484 11.0082 18.3373 11.8781 17.2363 11.8781C16.8043 11.8781 16.3479 11.7407 15.8788 11.4699C14.3159 10.5675 13.091 8.45813 13.091 6.66643C13.091 5.31961 13.803 4.4491 14.9046 4.4491V4.44917Z" fill="#A1A7B0"/>
<path d="M24.8119 30.9564L28.1419 29.0343L19.8859 24.2686L16.5557 26.1904L24.8119 30.9564Z" fill="#A1A7B0"/>
<path d="M3.86933 21.9385L0.230514 24.0393C0.0631041 24.1352 0.00390625 24.2322 0.00390625 24.29C0.00390625 24.3642 0.0848001 24.455 0.220606 24.5324L5.0913 27.3444L9.16163 24.9947L3.86933 21.9385Z" fill="#A1A7B0"/>
<path d="M16.2624 10.8045C16.6079 11.0046 16.9449 11.1099 17.2357 11.1099C17.8896 11.1099 18.2799 10.5686 18.2799 9.66187C18.2799 8.14363 17.2028 6.28658 15.8783 5.52242C15.533 5.32233 15.1953 5.2168 14.9041 5.2168C14.2495 5.2168 13.8584 5.75867 13.8584 6.66647C13.8584 8.18333 14.937 10.0396 16.2624 10.8046L16.2624 10.8045Z" fill="#A1A7B0"/>
<path d="M20.0341 1.08024C19.3063 0.658903 18.5729 0.463097 17.9237 0.507024L15.334 1.26453C15.6415 1.37355 15.9519 1.51417 16.2632 1.69337C19.1252 3.34498 21.6354 7.78738 21.6354 11.1994C21.6354 15.2218 18.8732 18.9562 17.3349 20.7247L19.0178 20.2064C19.0203 20.2061 19.0221 20.2053 19.0237 20.2048L20.0212 19.8973C20.3266 19.5935 21.795 18.0817 23.0579 15.9954C24.3622 13.8389 25.0229 11.7943 25.0229 9.91986C25.0253 7.10685 22.893 2.72808 20.0341 1.07963L20.0341 1.08024Z" fill="#A1A7B0"/>
</svg>
