<svg width="20" height="20" viewBox="0 0 20 20" fill="none" xmlns="http://www.w3.org/2000/svg">
<path fill-rule="evenodd" clip-rule="evenodd" d="M0 10C0 4.47716 4.47716 0 10 0C15.5229 0 20 4.47716 20 10C20 15.5229 15.5229 20 10 20C4.47716 20 0 15.5229 0 10ZM10 5.86207C10.7618 5.86207 11.3793 5.24453 11.3793 4.48276C11.3793 3.72099 10.7618 3.10344 10 3.10344C9.23823 3.10344 8.62069 3.72099 8.62069 4.48276C8.62069 5.24453 9.23823 5.86207 10 5.86207ZM10 8.27587C10.5713 8.27587 11.0345 8.73901 11.0345 9.31034V16.2069C11.0345 16.7782 10.5713 17.2413 10 17.2413C9.42867 17.2413 8.96551 16.7782 8.96551 16.2069V9.31034C8.96551 8.73901 9.42867 8.27587 10 8.27587Z" fill="white"/>
</svg>
