<svg width="297" height="296" viewBox="0 0 297 296" fill="none" xmlns="http://www.w3.org/2000/svg">
<path d="M147.191 256.645C148.707 255.925 154.093 260.532 156.596 262.926L161.853 264.726L163.525 262.62L170.043 256.452L174.75 251.998C177.466 249.429 181.402 252.848 182.488 251.82C183.575 250.792 186.29 248.223 185.071 242.234C183.851 236.245 190.502 237.095 191.227 236.409C191.951 235.724 197.697 237.43 198.602 236.573L204.396 231.092C206.931 228.693 208.138 223.087 210.419 218.25C212.7 213.414 223.077 222.991 218.707 217.305C214.336 211.619 225.751 209.03 224.072 204.369L226.4 197.896C229.864 204.86 238.573 200.471 241.47 197.729C244.367 194.988 239.946 195.37 242.118 179.923C241.453 171.623 246.659 168.9 243.652 161.031C240.645 153.162 236.377 142.797 241.966 141.08C247.555 139.363 250.61 140.045 251.201 132.343C251.792 124.641 251.14 127.937 244.62 120.712C238.101 113.488 252.592 110.283 249.019 106.522C245.445 102.76 245.6 93.7788 242.026 90.0172C238.452 86.2556 231.912 85.5268 227.819 78.6856C223.726 71.8443 224.782 73.4116 221.039 68.0244C217.296 62.6371 216.379 67.6752 212.177 63.6147C207.976 59.5542 206.635 60.5787 205.549 61.6066C204.462 62.6345 201.692 58.5023 199.7 60.3867C197.708 62.2711 192.319 57.6981 193.732 61.7184C195.145 65.7388 187.792 61.9808 185.982 63.6939C184.171 65.407 182.361 67.1201 183.049 71.8258C183.738 76.5314 178.015 71.2316 178.704 75.9372C179.392 80.6428 175.264 79.1921 173.272 81.0765C171.28 82.9609 168.781 79.9684 166.79 81.8528C164.798 83.7373 161.756 81.2587 162.082 86.3069C162.409 91.3551 156.589 87.0395 153.246 89.3103C149.902 91.581 142.948 82.0896 143.383 84.3567C143.817 86.6239 134.992 74.4388 132.119 73.5859C129.82 72.9035 126.364 73.078 124.924 73.2505L117.306 68.851C116.642 69.4791 114.848 70.4621 112.984 69.3686C110.654 68.0017 103.314 62.4468 101.866 63.8172C100.417 65.1877 96.4794 66.1876 97.168 70.8933C97.8566 75.5989 93.3558 71.8688 92.4506 72.7254C91.5453 73.5819 91.5215 77.1758 90.7972 77.8611C90.073 78.5463 94.3352 87.0135 92.8868 88.384C91.4383 89.7545 88.3841 89.0729 93.6243 99.2933C98.8645 109.514 88.0352 101.01 88.1925 104.433C88.3498 107.855 76.5769 99.225 74.5852 101.109C72.5936 102.994 78.1972 105.854 76.9298 107.053C75.6624 108.252 71.9077 104.662 70.4592 106.033C69.0107 107.403 69.8923 110.14 68.6248 111.34C67.3574 112.539 64.6653 111.515 63.3979 112.714C62.1305 113.913 63.5314 119.73 62.083 121.101C60.6345 122.471 54.5498 117.514 52.3771 119.57C50.2044 121.625 47.3668 115.382 46.0994 116.581C44.832 117.78 42.3328 114.788 40.7033 116.329C39.0738 117.871 38.4579 115.775 38.7117 118.214C38.9654 120.652 35.0178 119.03 32.2292 118.99C29.4406 118.95 30.334 119.89 30.8534 122.97C31.3728 126.05 29.4049 124.341 28.6807 125.026C27.9565 125.711 29.2847 128.919 30.3473 131.485C31.1974 133.538 28.7702 134.168 27.4504 134.226C26.9354 135.011 26.6008 137.53 29.3826 141.326C32.8597 146.072 28.1152 142.525 23.6243 141.417C19.1335 140.309 21.79 146.724 21.0539 149.206C20.465 151.192 23.4165 154.709 24.9658 156.219C28.0403 158.37 34.9355 164.108 37.9203 169.855C40.1538 172.206 41.1437 172.162 43.7275 175.968C46.3112 179.773 44.4279 178.876 49.6919 185.503C54.9559 192.129 48.6426 194.531 50.8524 200.476C53.0621 206.421 57.3838 205.904 58.7476 203.72C60.1115 201.537 65.5566 207.992 69.8426 212.866C74.1286 217.739 69.6259 218.428 74.081 224.927C78.5362 231.426 84.8376 230.821 90.1372 232.056C95.4369 233.292 97.4893 235.814 102.946 240.473C108.403 245.131 115.705 261.163 119.834 262.614C123.962 264.064 129.119 254.994 132.174 255.676C135.228 256.357 135.971 261.086 140.088 264.334C144.205 267.582 145.296 257.546 147.191 256.645Z" fill="white" fill-opacity="0.2" stroke="#CEF952"/>
</svg>
